<svg width="100" height="100" xmlns="http://www.w3.org/2000/svg">
 <!-- Created with Method Draw - http://github.com/duopixel/Method-Draw/ -->

 <g>
  <title>background</title>
  <rect fill="none" id="canvas_background" height="102" width="102" y="-1" x="-1"/>
  <g display="none" overflow="visible" y="0" x="0" height="100%" width="100%" id="canvasGrid">
   <rect fill="url(#gridpattern)" stroke-width="0" y="0" x="0" height="100%" width="100%"/>
  </g>
 </g>
 <g>
  <title>Layer 1</title>
  <ellipse stroke="#000" ry="38.687151" rx="42.597763" id="svg_26" cy="48.756983" cx="50.391063" fill-opacity="null" stroke-opacity="null" stroke-width="1.5" fill="#fff"/>
  <g stroke="null" id="svg_24">
   <g stroke="null" transform="matrix(0.9933711628222497,0,0,1.0035026612283813,0.7532290064593425,-0.16166448845770276) " id="svg_7">
    <g stroke="null" id="svg_5">
     <path stroke="null" id="svg_8" d="m50.078731,-0.193934c-27.164,0 -49.186,22.019 -49.186,49.184c0,27.164 22.022,49.184 49.186,49.184c27.164,0 49.186,-22.021 49.186,-49.185c0,-27.164 -22.022,-49.183 -49.186,-49.183zm18.93,72.545c-0.796,0 -1.339,-0.275 -2.082,-0.729c-7.129,-4.313 -16.019,-6.58 -25.449,-6.58c-5.264,0 -10.561,0.677 -15.515,1.707c-0.805,0.175 -1.817,0.484 -2.425,0.484c-1.867,0 -3.111,-1.482 -3.111,-3.092c0,-2.064 1.19,-3.096 2.675,-3.379c6.075,-1.385 12.125,-2.176 18.409,-2.176c10.762,0 20.354,2.471 28.608,7.418c1.228,0.717 1.947,1.449 1.947,3.27c0.001,1.775 -1.441,3.077 -3.057,3.077zm5.359,-13.018c-1.067,0 -1.738,-0.432 -2.465,-0.854c-8,-4.748 -19.09,-7.902 -31.232,-7.902c-6.228,0 -11.604,0.873 -16.053,2.058c-0.959,0.265 -1.496,0.549 -2.394,0.549c-2.114,0 -3.842,-1.726 -3.842,-3.856c0,-2.091 1.015,-3.529 3.059,-4.105c5.529,-1.52 11.177,-2.689 19.394,-2.689c12.875,0 25.33,3.206 35.121,9.066c1.642,0.939 2.246,2.137 2.246,3.887c0,2.126 -1.696,3.846 -3.834,3.846zm6.102,-15.14c-1,0 -1.595,-0.244 -2.533,-0.758c-8.901,-5.338 -22.719,-8.277 -36.079,-8.277c-6.67,0 -13.443,0.679 -19.648,2.362c-0.715,0.179 -1.616,0.537 -2.521,0.537c-2.624,0 -4.638,-2.076 -4.638,-4.699c0,-2.674 1.656,-4.174 3.442,-4.701c7.012,-2.065 14.838,-3.027 23.346,-3.027c14.443,0 29.639,2.971 40.738,9.488c1.496,0.849 2.533,2.126 2.533,4.468c-0.002,2.68 -2.156,4.607 -4.64,4.607z"/>
    </g>
   </g>
   <g stroke="null" transform="matrix(0.9933711628222497,0,0,1.0035026612283813,0.7532290064593425,-0.16166448845770276) " id="svg_9"/>
   <g stroke="null" transform="matrix(0.9933711628222497,0,0,1.0035026612283813,0.7532290064593425,-0.16166448845770276) " id="svg_10"/>
   <g stroke="null" transform="matrix(0.9933711628222497,0,0,1.0035026612283813,0.7532290064593425,-0.16166448845770276) " id="svg_11"/>
   <g stroke="null" transform="matrix(0.9933711628222497,0,0,1.0035026612283813,0.7532290064593425,-0.16166448845770276) " id="svg_12"/>
   <g stroke="null" transform="matrix(0.9933711628222497,0,0,1.0035026612283813,0.7532290064593425,-0.16166448845770276) " id="svg_13"/>
   <g stroke="null" transform="matrix(0.9933711628222497,0,0,1.0035026612283813,0.7532290064593425,-0.16166448845770276) " id="svg_14"/>
   <g stroke="null" transform="matrix(0.9933711628222497,0,0,1.0035026612283813,0.7532290064593425,-0.16166448845770276) " id="svg_15"/>
   <g stroke="null" transform="matrix(0.9933711628222497,0,0,1.0035026612283813,0.7532290064593425,-0.16166448845770276) " id="svg_16"/>
   <g stroke="null" transform="matrix(0.9933711628222497,0,0,1.0035026612283813,0.7532290064593425,-0.16166448845770276) " id="svg_17"/>
   <g stroke="null" transform="matrix(0.9933711628222497,0,0,1.0035026612283813,0.7532290064593425,-0.16166448845770276) " id="svg_18"/>
   <g stroke="null" transform="matrix(0.9933711628222497,0,0,1.0035026612283813,0.7532290064593425,-0.16166448845770276) " id="svg_19"/>
   <g stroke="null" transform="matrix(0.9933711628222497,0,0,1.0035026612283813,0.7532290064593425,-0.16166448845770276) " id="svg_20"/>
   <g stroke="null" transform="matrix(0.9933711628222497,0,0,1.0035026612283813,0.7532290064593425,-0.16166448845770276) " id="svg_21"/>
   <g stroke="null" transform="matrix(0.9933711628222497,0,0,1.0035026612283813,0.7532290064593425,-0.16166448845770276) " id="svg_22"/>
   <g stroke="null" transform="matrix(0.9933711628222497,0,0,1.0035026612283813,0.7532290064593425,-0.16166448845770276) " id="svg_23"/>
  </g>
 </g>
</svg>